<svg class="icon icon-caret icon-caret-arrow" width="34" height="35" viewBox="0 0 34 35" fill="none" xmlns="http://www.w3.org/2000/svg">
<rect x="33" y="1.5" width="32" height="32" rx="16" transform="rotate(90 33 1.5)" stroke="#1C6672" stroke-width="2"/>
<path d="M17.7071 8.79289C17.3166 8.40237 16.6834 8.40237 16.2929 8.79289L9.92893 15.1569C9.53841 15.5474 9.53841 16.1805 9.92893 16.5711C10.3195 16.9616 10.9526 16.9616 11.3431 16.5711L17 10.9142L22.6569 16.5711C23.0474 16.9616 23.6805 16.9616 24.0711 16.5711C24.4616 16.1805 24.4616 15.5474 24.0711 15.1569L17.7071 8.79289ZM18 25.5L18 9.5L16 9.5L16 25.5L18 25.5Z" fill="#1C6672"/>
</svg>
