<svg width="34" height="31" viewBox="0 0 34 31" fill="none" xmlns="http://www.w3.org/2000/svg">
<g id="Object" clip-path="url(#clip0_2953_2369)">
<path id="Vector" d="M32.75 9.46002H0.75V29.88H32.75V9.46002Z" stroke="#1C6672" stroke-width="1.5" stroke-miterlimit="10"/>
<path id="Vector_2" d="M32.75 4.08002H0.75V9.46002H32.75V4.08002Z" stroke="#1C6672" stroke-width="1.5" stroke-miterlimit="10"/>
<path id="Vector_3" d="M7.48047 6.77V0.369995" stroke="#1C6672" stroke-width="1.5" stroke-miterlimit="10"/>
<path id="Vector_4" d="M26.0195 6.77V0.369995" stroke="#1C6672" stroke-width="1.5" stroke-miterlimit="10"/>
<path id="Vector_5" d="M10.8084 13.1H4.14844V18.24H10.8084V13.1Z" stroke="#1C6672" stroke-width="1.5" stroke-miterlimit="10"/>
<path id="Vector_6" d="M20.0819 13.1H13.4219V18.24H20.0819V13.1Z" stroke="#1C6672" stroke-width="1.5" stroke-miterlimit="10"/>
<path id="Vector_7" d="M29.3514 13.1H22.6914V18.24H29.3514V13.1Z" stroke="#1C6672" stroke-width="1.5" stroke-miterlimit="10"/>
<path id="Vector_8" d="M10.8084 21.1H4.14844V26.24H10.8084V21.1Z" stroke="#1C6672" stroke-width="1.5" stroke-miterlimit="10"/>
<path id="Vector_9" d="M20.0819 21.1H13.4219V26.24H20.0819V21.1Z" stroke="#1C6672" stroke-width="1.5" stroke-miterlimit="10"/>
<path id="Vector_10" d="M29.3514 21.1H22.6914V26.24H29.3514V21.1Z" stroke="#1C6672" stroke-width="1.5" stroke-miterlimit="10"/>
</g>
<defs>
<clipPath id="clip0_2953_2369">
<rect width="33.5" height="30.26" fill="white" transform="translate(0 0.369995)"/>
</clipPath>
</defs>
</svg>
