<svg width="57" height="65" viewBox="0 0 57 65" fill="none" xmlns="http://www.w3.org/2000/svg">
<path d="M0.000240326 30.6637C0.309391 28.1989 1.01451 25.8343 2.09867 23.6297C2.10291 23.5998 2.11137 23.57 2.12408 23.5423C2.57934 22.5444 3.62115 21.9218 4.69895 21.9986C6.64703 22.0924 8.58453 21.877 10.4564 21.3568C10.9244 19.6703 11.6676 17.9304 12.4574 16.6788C12.8703 15.971 13.0884 15.1607 13.0884 14.3335C13.0884 12.9731 12.4977 11.6853 11.4686 10.8005C11.4558 10.7898 11.4431 10.777 11.4304 10.7621L11.4114 10.7386C10.6851 10.1182 9.86985 9.62777 8.98474 9.28236L5.13939 8.18857C5.12244 8.1843 5.10339 8.1779 5.08645 8.16938C4.09758 7.69604 3.34799 6.86449 2.98167 5.824C2.62804 4.82828 2.66404 3.87307 3.08542 2.90933C3.14683 2.77074 3.29505 2.68759 3.44116 2.71318L6.23624 3.1588C6.79949 3.24835 7.3818 3.19291 7.92176 2.99888C8.47019 2.80273 8.96357 2.46584 9.34683 2.02662C9.35318 2.02022 9.35954 2.01169 9.36589 2.0053L10.052 1.34433C10.052 1.34433 10.0668 1.33153 10.0752 1.32514C10.5602 0.937085 11.1022 0.632186 11.6909 0.423234C12.0318 0.301701 12.3854 0.21215 12.7433 0.156714L13.8952 0.00319824C13.9248 -0.00106608 13.9524 -0.00106608 13.9799 0.00319824C14.0794 -0.00106608 14.1768 0.00319824 14.2488 0.0181234L17.514 0.668433C17.7956 0.723869 18.0433 0.821948 18.253 0.958406C18.6553 1.21853 18.9518 1.59805 19.1148 2.05647C19.2058 2.31873 19.2418 2.58951 19.2228 2.86669L19.208 3.05219C19.2143 3.06925 19.2186 3.08417 19.2228 3.10123C20.0211 7.52973 22.7759 11.7514 26.7907 14.7002C26.8246 14.7108 26.8563 14.7258 26.8881 14.7471C30.0029 16.9645 32.6794 19.6937 34.8414 22.8578C34.852 22.8749 34.8625 22.8941 34.871 22.9111C36.5057 25.5081 38.9641 27.5422 41.7994 28.6445C43.2203 29.1818 44.7597 29.2842 46.2483 28.9388C50.299 27.9985 52.9332 23.6318 51.9972 19.4037C51.4594 16.9731 50.6569 14.6106 49.6087 12.3804C49.5791 12.3356 49.56 12.2823 49.5537 12.2269C49.5388 12.084 49.6193 11.9454 49.7485 11.8857C49.8332 11.8452 49.9285 11.8452 50.0089 11.8772C53.3673 12.6618 55.9929 15.3548 56.7065 18.7513C58.1782 25.7405 53.9792 32.6956 47.1503 34.5954C47.0233 34.6402 46.0873 34.9536 44.8444 34.9834C44.8952 35.5676 44.9206 36.1583 44.9206 36.7467C44.9206 39.38 44.4251 41.9385 43.4447 44.3543L43.413 44.431C42.9556 45.512 42.7332 46.6655 42.7332 47.9598C42.7332 50.4928 43.7263 52.8339 45.5283 54.5524C45.5389 54.5631 45.5495 54.5759 45.5601 54.5865L45.6088 54.6484C45.6448 54.6953 45.6702 54.7507 45.6787 54.8104C45.8269 55.885 45.901 56.9873 45.901 58.0833C45.901 60.354 45.5834 62.6013 44.9566 64.7591C44.9143 64.9019 44.7851 65 44.6369 65H40.3384C40.1541 65 40.0059 64.8507 40.0059 64.6653C40.0059 62.9744 41.0795 61.467 42.6464 60.9148C42.6189 59.4116 42.0535 57.9767 41.0477 56.8679C40.8593 56.6654 40.6835 56.4522 40.5205 56.2304C40.4252 56.998 40.2918 57.7656 40.1245 58.5225C39.8429 59.7911 39.3262 60.951 38.8286 62.0747C38.4242 62.9872 38.0409 63.8508 37.7762 64.7591C37.7339 64.9019 37.6047 65 37.4565 65H33.158C32.9737 65 32.8255 64.8507 32.8255 64.6653C32.8255 62.9617 33.9181 61.4457 35.5063 60.9041C35.7265 59.7975 35.8408 58.6611 35.8408 57.5225C35.8408 56.2326 35.4343 55.0066 34.6656 53.9789C34.6656 53.9789 34.6635 53.9746 34.6614 53.9725C32.1987 50.5823 30.9367 46.802 30.9071 42.736C30.4645 42.3266 30.0262 41.913 29.5858 41.4993C27.337 39.3778 25.0141 37.1817 22.2296 35.6828C22.2296 35.6828 22.2296 35.6828 22.2275 35.6828C22.2275 35.6828 22.2254 35.6828 22.2233 35.6828C20.7326 34.8342 19.3011 33.8534 17.9692 32.7639C17.6961 32.54 17.3107 32.4931 16.9867 32.6423C16.108 33.0517 14.8565 33.6764 13.8825 34.3246C12.3261 35.2883 9.60093 38.4674 9.4273 40.2776C9.29601 41.6464 8.14621 42.6763 6.80796 42.6763C6.72326 42.6763 6.63857 42.672 6.55386 42.6635L6.22565 42.6315C6.13672 42.623 6.05626 42.5803 6.0012 42.5121C5.94614 42.4439 5.91862 42.3543 5.92709 42.2669C6.16425 39.7957 6.80161 37.4098 7.82012 35.1732C7.82436 35.1433 7.83071 35.1135 7.84341 35.0836C8.19915 34.2393 8.61841 33.363 9.48235 32.7468C9.49294 32.7383 9.50352 32.7297 9.51411 32.7212C11.0408 31.604 12.3812 30.2628 13.4971 28.7383C13.5035 28.7298 13.5119 28.7234 13.5183 28.7149C13.586 28.6211 13.6284 28.5102 13.6432 28.3951C13.6877 28.0305 13.4442 27.6893 13.0884 27.6168C11.7862 27.3929 10.7168 27.071 9.68351 26.7576C8.58242 26.4249 7.54273 26.1115 6.33788 25.958C4.25639 25.6957 3.70373 27.6147 3.55974 28.781C3.4708 29.4846 3.11718 30.1114 2.5624 30.5443C2.09444 30.9089 1.5333 31.1029 0.95311 31.1029C0.842999 31.1029 0.730774 31.0965 0.618549 31.0816L0.29034 31.0411C0.203526 31.0304 0.123058 30.9835 0.0701218 30.9131C0.0171814 30.8428 -0.0082283 30.7532 0.00235748 30.6658L0.000240326 30.6637ZM18.488 2.27608C18.3779 1.96265 18.1725 1.7004 17.8951 1.5213C17.7575 1.43175 17.586 1.36565 17.389 1.32727L14.1239 0.676961C14.1027 0.672697 14.0731 0.670565 14.0455 0.670565C14.0095 0.670565 13.9778 0.672697 13.9608 0.676961C13.9333 0.68549 13.9058 0.698283 13.8804 0.713208C13.7427 0.792098 13.6729 0.930688 13.6898 1.08847C13.694 1.12685 13.7046 1.16309 13.7173 1.19934L16.2837 6.90714C16.5209 7.39114 17.0799 7.61928 17.586 7.43804C17.9883 7.29306 18.2636 6.92206 18.2869 6.50416L18.56 2.81765C18.5748 2.63642 18.5494 2.45518 18.488 2.27821V2.27608ZM2.89908 28.6957C3.19553 26.3226 4.51261 25.0476 6.42258 25.2906C7.68248 25.4505 8.74758 25.7725 9.8762 26.1136C10.8926 26.4207 11.9429 26.7384 13.2112 26.9558C13.2112 26.9558 13.2134 26.9558 13.2155 26.9558C13.2155 26.9558 13.2176 26.9558 13.2197 26.9558C13.9164 27.0966 14.3949 27.7639 14.306 28.4739C14.2763 28.717 14.1811 28.9473 14.0349 29.1392C14.0286 29.1477 14.018 29.1562 14.0117 29.1648C12.8703 30.717 11.5024 32.0858 9.94608 33.2308C9.93337 33.2436 9.91855 33.2564 9.90373 33.267C9.18802 33.7638 8.82381 34.4866 8.49771 35.2521C8.49348 35.2883 8.48501 35.3267 8.46807 35.3608C7.50249 37.4525 6.88207 39.6827 6.62586 41.994C7.70154 42.0963 8.665 41.2968 8.76876 40.2094C8.96568 38.1518 11.7946 34.8278 13.5289 33.7553C14.5283 33.0901 15.8115 32.4504 16.7114 32.0304C17.2641 31.7724 17.9226 31.8534 18.3927 32.2393C19.6929 33.3033 21.0904 34.2628 22.5472 35.09C25.408 36.6316 27.7668 38.8554 30.0453 41.0089C30.5175 41.4545 30.9897 41.9002 31.4661 42.3415C31.4682 42.3437 31.4725 42.3479 31.4746 42.3501C31.4746 42.3501 31.4746 42.3522 31.4767 42.3543C31.5402 42.4204 31.572 42.5057 31.572 42.5931C31.572 46.5696 32.7938 50.2668 35.2035 53.5801C35.2056 53.5844 35.2077 53.5887 35.2098 53.5929C36.0589 54.7336 36.5078 56.094 36.5078 57.5246C36.5078 58.7741 36.3787 60.0214 36.1246 61.2325C36.1246 61.2367 36.1224 61.2389 36.1203 61.241C36.1119 61.273 36.1013 61.305 36.0822 61.3348C36.0801 61.3391 36.0759 61.3433 36.0737 61.3476C36.0547 61.3753 36.0335 61.4009 36.0081 61.4222C36.0081 61.4222 36.0081 61.4222 36.006 61.4244C35.9806 61.4436 35.9509 61.4606 35.9213 61.4734C35.9149 61.4755 35.9086 61.4777 35.9022 61.4819C35.898 61.4819 35.8938 61.4862 35.8874 61.4883C34.5852 61.8551 33.645 62.9979 33.5095 64.3348H37.213C37.4861 63.467 37.8609 62.6226 38.223 61.806C38.7079 60.7122 39.2097 59.5822 39.4765 58.3796C39.7074 57.3455 39.8683 56.2901 39.9572 55.2432V55.2326C39.9572 55.0791 40.061 54.9447 40.2092 54.9063C40.3574 54.8701 40.512 54.9383 40.584 55.0748C40.8402 55.5609 41.16 56.0108 41.539 56.4181C42.6845 57.6824 43.3156 59.3199 43.3156 61.032C43.3156 61.079 43.3156 61.1259 43.3156 61.1728C43.3113 61.3199 43.2139 61.4478 43.072 61.4883C41.7698 61.8551 40.8296 62.9979 40.6941 64.3348H44.3934C44.9587 62.3113 45.2446 60.2112 45.2446 58.0875C45.2446 57.0556 45.1768 56.0193 45.0413 55.0066C43.1292 53.1644 42.0768 50.6655 42.0768 47.9662C42.0768 46.5803 42.3161 45.3393 42.8095 44.1794L42.8391 44.1091C43.7856 41.7744 44.2663 39.2989 44.2663 36.7531C44.2663 36.073 44.2303 35.3843 44.1604 34.7105C44.1414 34.5271 44.2748 34.363 44.4569 34.3417L44.639 34.3225C44.6517 34.3225 44.6623 34.3225 44.675 34.3225C45.9518 34.3225 46.9428 33.9707 46.9513 33.9685C46.9597 33.9664 46.9682 33.9621 46.9746 33.96C53.4625 32.1541 57.4582 25.538 56.0586 18.892C55.4424 15.9667 53.2931 13.6043 50.4917 12.7066C51.4234 14.8004 52.1497 17.0029 52.6473 19.2587C53.6764 23.9175 50.8729 28.5528 46.3986 29.5933C44.7809 29.9686 43.1102 29.8577 41.5623 29.2735C38.5766 28.1136 35.9912 25.9687 34.2824 23.231C34.276 23.2203 34.2696 23.2096 34.2654 23.199C32.1733 20.1479 29.5921 17.5104 26.5916 15.359C26.5556 15.3484 26.5218 15.3313 26.49 15.3078C22.886 12.6896 20.2519 9.07341 19.047 5.17582L18.9517 6.4338V6.52548C18.9115 7.22483 18.4647 7.83036 17.8083 8.0649C17.6177 8.13313 17.4229 8.16511 17.2302 8.16511C16.5908 8.16511 15.9809 7.80264 15.6802 7.18858L13.1054 1.46799C13.1054 1.46799 13.1032 1.4616 13.1011 1.45946C13.063 1.36778 13.0376 1.26757 13.0249 1.16736C13.0101 1.03943 13.0207 0.913631 13.0503 0.792098L12.8386 0.819816C12.5273 0.866723 12.216 0.945614 11.9153 1.05435C11.4008 1.23772 10.9265 1.50424 10.503 1.84112L9.83809 2.48077C9.38282 2.99888 8.79628 3.39547 8.14621 3.63C7.5025 3.86028 6.80585 3.92637 6.1346 3.81977L3.60209 3.41466C3.33952 4.13959 3.34375 4.84107 3.61056 5.59799C3.91548 6.45938 4.53166 7.15233 5.34901 7.55105L8.66711 8.49346L9.18378 8.64272C9.18378 8.64272 9.20284 8.64911 9.21131 8.65124C10.179 9.02864 11.0705 9.56381 11.8624 10.2461C11.8751 10.2568 11.8878 10.2696 11.9005 10.2845L11.9196 10.3079C13.0842 11.3186 13.7512 12.7834 13.7512 14.3313C13.7512 15.2759 13.5013 16.2055 13.0228 17.0264C12.2436 18.2609 11.4876 20.0562 11.0472 21.7129C11.0175 21.8259 10.9307 21.9154 10.8185 21.9474C8.81958 22.5252 6.74867 22.7661 4.65871 22.6659C3.87313 22.6105 3.12565 23.0391 2.7678 23.7363C2.76356 23.7704 2.75298 23.8045 2.73603 23.8365C1.70905 25.9004 1.0251 28.1115 0.701126 30.4142C1.77681 30.5485 2.75933 29.7767 2.89485 28.6936L2.89908 28.6957Z" fill="#FAF9F7"/>
</svg>
