<svg width="64" height="64" viewBox="0 0 64 64" fill="none" xmlns="http://www.w3.org/2000/svg">
<path d="M32 64C49.6731 64 64 49.6731 64 32C64 14.3269 49.6731 0 32 0C14.3269 0 0 14.3269 0 32C0 49.6731 14.3269 64 32 64Z" fill="#1C6672"/>
<path d="M43.5092 20.3299C42.7192 19.5399 41.4292 19.5399 40.6392 20.3299L31.8392 29.1299L23.3492 20.6399C22.5592 19.8499 21.2692 19.8499 20.4792 20.6399C19.6892 21.4299 19.6892 22.7199 20.4792 23.5099L28.9692 31.9999L20.4792 40.4899C19.6892 41.2799 19.6892 42.5699 20.4792 43.3599C20.8592 43.7399 21.3692 43.9499 21.9092 43.9499C22.4492 43.9499 22.9592 43.7399 23.3492 43.3599L31.8392 34.8699L40.6392 43.6699C41.0192 44.0499 41.5292 44.2599 42.0692 44.2599C42.6092 44.2599 43.1192 44.0499 43.5092 43.6699C44.2992 42.8799 44.2992 41.5899 43.5092 40.7999L34.7092 31.9999L43.5092 23.1999C44.2992 22.4099 44.2992 21.1199 43.5092 20.3299Z" fill="#FAF9F7"/>
</svg>
