<svg width="25" height="24" viewBox="0 0 25 24" fill="none" xmlns="http://www.w3.org/2000/svg">
<g clip-path="url(#clip0_2553_1155)">
<path d="M19.1083 13.8161C19.2712 13.8161 19.4089 13.7409 19.4966 13.6031L24.8195 5.07398C24.9072 4.93621 24.9072 4.76087 24.8195 4.61057C24.7444 4.4728 24.5941 4.37261 24.4312 4.37261H8.46255L8.01167 2.45636C7.9741 2.24345 7.78623 2.09315 7.57332 2.09315H1.33613C1.08565 2.09315 0.885254 2.29355 0.885254 2.54404C0.885254 2.79452 1.08565 2.99492 1.33613 2.99492H7.19758L9.36431 13.3902V17.1977C8.28721 17.4231 7.47312 18.3875 7.47312 19.5272C7.47312 20.8423 8.5377 21.9069 9.85277 21.9069C10.9925 21.9069 11.9444 21.1053 12.1698 20.0407H18.2692C18.5072 21.1053 19.459 21.9069 20.5862 21.9069C21.9013 21.9069 22.9659 20.8423 22.9659 19.5272C22.9659 18.2121 21.9013 17.1476 20.5862 17.1476C19.4089 17.1476 18.432 18.0117 18.2442 19.1389H12.1948C12.032 18.1495 11.2555 17.3605 10.2661 17.1851V13.8035H19.0958L19.1083 13.8161ZM19.459 5.27437H23.6172L22.49 7.07789H19.459V5.27437ZM19.459 7.99218H21.9263L20.4359 10.3718H19.459V7.99218ZM19.459 11.2736H19.8723L19.459 11.9374V11.2736ZM20.5988 18.0869C21.4003 18.0869 22.0391 18.7382 22.0391 19.5272C22.0391 20.3162 21.3878 20.9675 20.5988 20.9675C19.8097 20.9675 19.1584 20.3162 19.1584 19.5272C19.1584 18.7382 19.8097 18.0869 20.5988 18.0869ZM13.4723 12.9143H10.1909L9.85277 11.2736H13.4723V12.9143ZM14.3741 5.27437H18.5573V7.07789H14.3741V5.27437ZM14.3741 7.99218H18.5573V10.3718H14.3741V7.99218ZM14.3741 11.2736H18.5573V12.9143H14.3741V11.2736ZM8.65042 5.27437H13.4723V7.07789H9.01363L8.65042 5.27437ZM9.18897 7.99218H13.4723V10.3718H9.75257C9.75257 10.3718 9.70247 10.3718 9.67743 10.3718L9.18897 7.97965V7.99218ZM11.3056 19.5397C11.3056 20.3413 10.6543 20.98 9.86529 20.98C9.07625 20.98 8.42498 20.3288 8.42498 19.5397C8.42498 18.7507 9.07625 18.0994 9.86529 18.0994C10.6543 18.0994 11.3056 18.7507 11.3056 19.5397Z" fill="#1C6672"/>
</g>
<defs>
<clipPath id="clip0_2553_1155">
<rect width="24" height="24" fill="white" transform="translate(0.885254)"/>
</clipPath>
</defs>
</svg>
