<svg width="20" height="20" viewBox="0 0 20 20" fill="none" xmlns="http://www.w3.org/2000/svg">
<path d="M18.7747 1.2218C18.6847 1.1368 18.5597 1.0968 18.4397 1.1218L9.98975 2.9018C9.91975 2.9168 9.85475 2.9518 9.80475 3.0018L1.22475 11.5168C1.15475 11.5868 1.11475 11.6818 1.11475 11.7768C1.11475 11.8768 1.15475 11.9718 1.22475 12.0418L7.95975 18.7768C8.10475 18.9218 8.33975 18.9218 8.48475 18.7768L17.1897 10.0718C17.2447 10.0168 17.2797 9.9518 17.2897 9.8768L18.8797 1.5518C18.8997 1.4368 18.8647 1.3118 18.7747 1.2168V1.2218ZM14.9647 8.2918C14.0647 9.1918 12.6047 9.1918 11.7097 8.2918C10.8097 7.3918 10.8097 5.9318 11.7097 5.0368C12.6097 4.1418 14.0697 4.1368 14.9647 5.0368C15.8647 5.9368 15.8647 7.3968 14.9647 8.2918Z" stroke="#1C6672" stroke-linejoin="round"/>
</svg>
