<svg width="15" height="15" viewBox="0 0 15 15" fill="none" xmlns="http://www.w3.org/2000/svg">
<rect width="15" height="15" rx="7.5" fill="#1C6672"/>
<path d="M7.25888 9.108C7.20288 8.604 7.15888 8.084 7.12688 7.548C7.09488 7.004 7.07088 6.468 7.05488 5.94C7.03888 5.412 7.03088 4.912 7.03088 4.44V3.6H8.00288V4.44C8.00288 4.936 7.99488 5.456 7.97888 6C7.96288 6.544 7.93488 7.084 7.89488 7.62C7.86288 8.148 7.81888 8.644 7.76288 9.108H7.25888ZM7.47488 12.12C7.25888 12.12 7.09088 12.056 6.97088 11.928C6.85888 11.8 6.80288 11.616 6.80288 11.376C6.80288 11.16 6.86288 10.984 6.98288 10.848C7.11088 10.704 7.27488 10.632 7.47488 10.632C7.69088 10.632 7.85488 10.7 7.96688 10.836C8.08688 10.964 8.14688 11.144 8.14688 11.376C8.14688 11.6 8.08288 11.78 7.95488 11.916C7.83488 12.052 7.67488 12.12 7.47488 12.12Z" fill="white"/>
</svg>
