<svg width="25" height="24" viewBox="0 0 25 24" fill="none" xmlns="http://www.w3.org/2000/svg">
<g clip-path="url(#clip0_2553_1152)">
<path d="M12.8853 0C6.259 0 0.885254 5.37375 0.885254 12C0.885254 18.6262 6.259 24 12.8853 24C19.5115 24 24.8853 18.6262 24.8853 12C24.8853 5.37375 19.5115 0 12.8853 0ZM12.8853 23.25C6.68275 23.25 1.63525 18.2025 1.63525 12C1.63525 5.7975 6.68275 0.75 12.8853 0.75C19.0878 0.75 24.1353 5.7975 24.1353 12C24.1353 18.2025 19.0878 23.25 12.8853 23.25Z" fill="#1C6672" stroke="#1C6672" stroke-width="0.25"/>
<path d="M14.674 11.6062C15.739 10.9575 16.4065 9.79125 16.4065 8.53125C16.4065 6.54375 14.7903 4.9275 12.8028 4.9275C10.8153 4.9275 9.19901 6.54375 9.19901 8.53125C9.19901 9.82875 9.89276 11.01 11.0028 11.6512C9.39026 12.3862 8.33276 13.9987 8.33276 15.7912V18.6262C8.33276 18.8737 8.53526 19.0725 8.77901 19.0725H16.9878C17.2353 19.0725 17.434 18.87 17.434 18.6262V15.7912C17.434 13.95 16.339 12.3187 14.6703 11.6062H14.674ZM10.0953 8.53125C10.0953 7.03875 11.3103 5.82375 12.8028 5.82375C14.2953 5.82375 15.5103 7.03875 15.5103 8.53125C15.5103 10.0237 14.2953 11.2387 12.8028 11.2387C11.3103 11.2387 10.0953 10.0237 10.0953 8.53125ZM12.8853 12.1312C14.9028 12.1312 16.5415 13.7737 16.5415 15.7875V18.1762H9.22526V15.7875C9.22526 13.77 10.8678 12.1312 12.8815 12.1312H12.8853Z" fill="#1C6672" stroke="#1C6672" stroke-width="0.25"/>
</g>
<defs>
<clipPath id="clip0_2553_1152">
<rect width="24" height="24" fill="white" transform="translate(0.885254)"/>
</clipPath>
</defs>
</svg>
