<svg width="32" height="32" viewBox="0 0 32 32" fill="none" xmlns="http://www.w3.org/2000/svg">
<rect width="32" height="32" rx="16"/>
<g clip-path="url(#clip0_1_13)">
<path d="M16.945 9.47501C17.0624 9.39104 17.1997 9.33933 17.3434 9.32505C17.487 9.31077 17.6318 9.33441 17.7634 9.39362C17.8951 9.45282 18.0088 9.54552 18.0934 9.66246C18.178 9.77939 18.2305 9.91647 18.2455 10.06L18.25 10.1455V21.8545C18.25 21.9988 18.2122 22.1407 18.1403 22.2658C18.0684 22.3909 17.9649 22.495 17.8402 22.5677C17.7155 22.6403 17.5739 22.679 17.4296 22.6798C17.2853 22.6806 17.1433 22.6435 17.0177 22.5723L16.9457 22.5258L12.01 19H10C9.62157 19.0001 9.25707 18.8572 8.97959 18.5999C8.7021 18.3426 8.53213 17.9899 8.50375 17.6125L8.5 17.5V14.5C8.50007 14.1217 8.64308 13.7574 8.90038 13.4801C9.15768 13.2027 9.51026 13.0329 9.8875 13.0045L10 13H12.01L16.945 9.47501ZM20.1895 13.879L21.25 14.9395L22.3105 13.879C22.3797 13.8074 22.4624 13.7502 22.5539 13.7109C22.6454 13.6716 22.7439 13.6509 22.8434 13.6501C22.943 13.6492 23.0418 13.6682 23.134 13.7059C23.2261 13.7436 23.3099 13.7993 23.3803 13.8697C23.4507 13.9401 23.5064 14.0239 23.5441 14.116C23.5818 14.2082 23.6008 14.307 23.5999 14.4066C23.5991 14.5061 23.5784 14.6046 23.5391 14.6961C23.4998 14.7876 23.4426 14.8703 23.371 14.9395L22.3105 16L23.371 17.0605C23.5117 17.2011 23.5908 17.3919 23.5909 17.5909C23.591 17.7898 23.512 17.9807 23.3714 18.1214C23.2307 18.2621 23.04 18.3412 22.841 18.3413C22.6421 18.3414 22.4512 18.2624 22.3105 18.1218L21.25 17.0605L20.1895 18.1218C20.0488 18.2624 19.8579 18.3414 19.659 18.3413C19.46 18.3412 19.2693 18.2621 19.1286 18.1214C18.988 17.9807 18.909 17.7898 18.9091 17.5909C18.9092 17.3919 18.9883 17.2011 19.129 17.0605L20.1895 16L19.129 14.9395C19.0574 14.8703 19.0002 14.7876 18.9609 14.6961C18.9216 14.6046 18.9009 14.5061 18.9001 14.4066C18.8992 14.307 18.9182 14.2082 18.9559 14.116C18.9936 14.0239 19.0493 13.9401 19.1197 13.8697C19.1901 13.7993 19.2739 13.7436 19.366 13.7059C19.4582 13.6682 19.557 13.6492 19.6565 13.6501C19.7561 13.6509 19.8545 13.6716 19.9461 13.7109C20.0376 13.7502 20.1203 13.8074 20.1895 13.879Z" fill="#F2F0E7"/>
</g>
<defs>
<clipPath id="clip0_1_13">
<rect width="18" height="18" fill="white" transform="translate(7 7)"/>
</clipPath>
</defs>
</svg>
