<svg width="32" height="32" viewBox="0 0 32 32" fill="none" xmlns="http://www.w3.org/2000/svg">
<rect width="32" height="32" rx="16"/>
<g clip-path="url(#clip0_1_6)">
<path d="M16.945 9.47501C17.0624 9.39104 17.1997 9.33933 17.3434 9.32505C17.487 9.31077 17.6318 9.33441 17.7634 9.39362C17.8951 9.45282 18.0088 9.54552 18.0934 9.66246C18.178 9.77939 18.2305 9.91647 18.2455 10.06L18.25 10.1455V21.8545C18.25 21.9988 18.2122 22.1407 18.1403 22.2658C18.0684 22.3909 17.9649 22.495 17.8402 22.5677C17.7155 22.6403 17.5739 22.679 17.4296 22.6798C17.2853 22.6806 17.1433 22.6435 17.0177 22.5723L16.9457 22.5258L12.01 19H10C9.62157 19.0001 9.25708 18.8572 8.97959 18.5999C8.7021 18.3426 8.53213 17.9899 8.50375 17.6125L8.5 17.5V14.5C8.49988 14.1216 8.6428 13.7571 8.90012 13.4796C9.15744 13.2021 9.51013 13.0321 9.8875 13.0038L10 13H12.01L16.945 9.47501ZM21.7502 12.0873C22.3007 12.5797 22.7411 13.1827 23.0426 13.8569C23.3441 14.5312 23.5 15.2614 23.5 16C23.5 16.7386 23.3441 17.4688 23.0426 18.1431C22.7411 18.8173 22.3007 19.4203 21.7502 19.9128C21.677 19.9795 21.5913 20.0311 21.4981 20.0646C21.4048 20.098 21.3059 20.1127 21.2069 20.1077C21.108 20.1027 21.011 20.0781 20.9216 20.0354C20.8322 19.9927 20.7521 19.9327 20.686 19.8589C20.62 19.7851 20.5691 19.6989 20.5366 19.6054C20.504 19.5118 20.4902 19.4127 20.4962 19.3138C20.5021 19.2149 20.5275 19.1182 20.5711 19.0292C20.6146 18.9402 20.6753 18.8607 20.7497 18.7953C21.1431 18.4435 21.4577 18.0127 21.6732 17.5311C21.8886 17.0494 22 16.5277 22 16C22 14.89 21.5185 13.8925 20.7497 13.2048C20.6753 13.1394 20.6146 13.0599 20.5711 12.9709C20.5275 12.8819 20.5021 12.7851 20.4962 12.6862C20.4902 12.5873 20.504 12.4882 20.5366 12.3947C20.5691 12.3011 20.62 12.2149 20.686 12.1411C20.7521 12.0673 20.8322 12.0073 20.9216 11.9646C21.011 11.9219 21.108 11.8973 21.2069 11.8923C21.3059 11.8873 21.4048 11.902 21.4981 11.9354C21.5913 11.9689 21.677 12.0205 21.7502 12.0873ZM20.2502 13.7643C20.5647 14.0456 20.8162 14.39 20.9885 14.7751C21.1608 15.1602 21.2499 15.5774 21.25 15.9993C21.2501 16.4214 21.1611 16.8388 20.9888 17.2242C20.8165 17.6096 20.5649 17.9543 20.2502 18.2358C20.108 18.3621 19.9231 18.4296 19.7329 18.4247C19.5428 18.4199 19.3616 18.3429 19.226 18.2094C19.0905 18.076 19.0107 17.896 19.0029 17.7059C18.995 17.5159 19.0597 17.3299 19.1837 17.1858L19.2497 17.1183C19.5572 16.8423 19.75 16.444 19.75 16C19.7501 15.6161 19.603 15.2467 19.339 14.968L19.2497 14.8818C19.1753 14.8164 19.1146 14.7369 19.0711 14.6479C19.0275 14.5589 19.0021 14.4621 18.9962 14.3632C18.9902 14.2643 19.004 14.1652 19.0366 14.0717C19.0691 13.9781 19.12 13.8919 19.186 13.8181C19.2521 13.7443 19.3322 13.6843 19.4216 13.6416C19.511 13.5989 19.608 13.5743 19.7069 13.5693C19.8059 13.5643 19.9048 13.579 19.9981 13.6124C20.0913 13.6459 20.177 13.6975 20.2502 13.7643Z" fill="#F2F0E7"/>
</g>
<defs>
<clipPath id="clip0_1_6">
<rect width="18" height="18" fill="white" transform="translate(7 7)"/>
</clipPath>
</defs>
</svg>
